<mxfile host="app.diagrams.net" modified="2021-01-29T10:17:39.246Z" agent="5.0 (Windows)" etag="NF4mFV6kW8XYWh4CyxAE" version="14.2.7" type="github">
  <diagram id="C5RBs43oDa-KdzZeNtuy" name="Page-1">
    <mxGraphModel dx="1422" dy="830" grid="1" gridSize="10" guides="1" tooltips="1" connect="1" arrows="1" fold="1" page="1" pageScale="1" pageWidth="827" pageHeight="1169" math="0" shadow="0">
      <root>
        <mxCell id="WIyWlLk6GJQsqaUBKTNV-0" />
        <mxCell id="WIyWlLk6GJQsqaUBKTNV-1" parent="WIyWlLk6GJQsqaUBKTNV-0" />
        <mxCell id="Y5lq3UHIILuQY0csm1ef-3" value="" style="edgeStyle=orthogonalEdgeStyle;rounded=0;orthogonalLoop=1;jettySize=auto;html=1;" edge="1" parent="WIyWlLk6GJQsqaUBKTNV-1" source="Y5lq3UHIILuQY0csm1ef-0" target="Y5lq3UHIILuQY0csm1ef-1">
          <mxGeometry relative="1" as="geometry" />
        </mxCell>
        <mxCell id="Y5lq3UHIILuQY0csm1ef-0" value="Raw Market Data" style="strokeWidth=2;html=1;shape=mxgraph.flowchart.direct_data;whiteSpace=wrap;" vertex="1" parent="WIyWlLk6GJQsqaUBKTNV-1">
          <mxGeometry x="314" y="30" width="100" height="60" as="geometry" />
        </mxCell>
        <mxCell id="Y5lq3UHIILuQY0csm1ef-4" value="" style="edgeStyle=orthogonalEdgeStyle;rounded=0;orthogonalLoop=1;jettySize=auto;html=1;" edge="1" parent="WIyWlLk6GJQsqaUBKTNV-1" source="Y5lq3UHIILuQY0csm1ef-1" target="Y5lq3UHIILuQY0csm1ef-2">
          <mxGeometry relative="1" as="geometry" />
        </mxCell>
        <mxCell id="Y5lq3UHIILuQY0csm1ef-1" value="Local storage" style="shape=internalStorage;whiteSpace=wrap;html=1;dx=15;dy=15;rounded=1;arcSize=8;strokeWidth=2;" vertex="1" parent="WIyWlLk6GJQsqaUBKTNV-1">
          <mxGeometry x="329" y="120" width="71" height="60" as="geometry" />
        </mxCell>
        <mxCell id="Y5lq3UHIILuQY0csm1ef-2" value="Preprocessing of raw data creating initial parameters&lt;br&gt;&lt;br&gt;" style="verticalLabelPosition=bottom;verticalAlign=top;shape=process;rounded=1;size=0.14;arcSize=6;spacingTop=-56;spacingLeft=0;whiteSpace=wrap;html=1;labelBorderColor=none;" vertex="1" parent="WIyWlLk6GJQsqaUBKTNV-1">
          <mxGeometry x="284.5" y="210" width="160" height="60" as="geometry" />
        </mxCell>
      </root>
    </mxGraphModel>
  </diagram>
</mxfile>
